<?xml version="1.0" encoding="UTF-8"?>
<!DOCTYPE svg PUBLIC "-//W3C//DTD SVG 1.1//EN" "http://www.w3.org/Graphics/SVG/1.1/DTD/svg11.dtd">
<!-- Creator: CorelDRAW 2017 -->
<svg xmlns="http://www.w3.org/2000/svg" xml:space="preserve" width="14.9012mm" height="12.6391mm" version="1.1" style="shape-rendering:geometricPrecision; text-rendering:geometricPrecision; image-rendering:optimizeQuality; fill-rule:evenodd; clip-rule:evenodd"
viewBox="0 0 1490.12 1263.91"
 xmlns:xlink="http://www.w3.org/1999/xlink">
 <defs>
  <style type="text/css">
   <![CDATA[
    .fil0 {fill:#737373}
   ]]>
  </style>
 </defs>
 <g id="Слой_x0020_1">
  <metadata id="CorelCorpID_0Corel-Layer"/>
  <g id="_2847864624048">
   <path class="fil0" d="M694.26 50.81c58.95,39.47 83.28,59.95 115.87,129.66 51.11,109.37 36.53,351.17 36.53,488.4l-50.8 0c0,-144.99 15.74,-166.81 -25.4,-177.8 -26.4,19.34 -17.52,3 -16.97,101.57 0.47,83.13 5.68,594.07 -4.4,614.64 -7.37,15.04 -21.55,19.27 -33.38,15.35 -37.33,-12.35 -21.45,-102.15 -21.45,-172.76 0,-333.02 0,-666.04 0,-999.06zm-42.34 1134.53c0,87.5 145.37,130.09 144.29,-25.04l-0.36 -339.04c-0.34,-106.34 -18.51,-118.52 84.67,-118.52l0 -397.93c0,-68.39 -34.4,-155.01 -64.01,-198.45 -29.44,-43.19 -99.12,-104.89 -164.59,-106.35l0 1185.33z"/>
   <path class="fil0" d="M1295.39 42.34c135.98,0 202.01,242.04 123.5,369.04 -25.77,41.69 -60.36,58.93 -77.71,108.55 -24.86,71.05 -11.69,504.51 -11.25,640.71 0.11,32.82 2.89,59.84 -27.54,63.09 -48.4,5.16 -32.41,-94.26 -32.4,-148.46 0.01,-120.57 10.84,-482.86 -9.86,-548.94 -20.09,-64.09 -119.68,-113.34 -115.63,-254.65 2.59,-90.61 60.48,-229.34 150.89,-229.34zm-186.27 203.2c0,76.48 -5.11,98.48 30.69,172.51 22.78,47.1 37.76,45.78 62.86,81.07 37.08,52.13 24.99,176.85 24.99,262.89 0,93.13 0,186.26 0,279.39 0,113.64 -26.73,220.14 76.19,220.14 93.04,0 67.74,-125.04 67.74,-220.14l-0.21 -432c-1.34,-192.85 118.74,-83.18 118.74,-363.86 0,-161.8 -179.64,-360.05 -324.4,-163.54 -26.85,36.44 -56.6,103.52 -56.6,163.54z"/>
   <path class="fil0" d="M-0.01 25.41l0 296.33c0,77.66 74.36,64.42 101.6,101.6 29.58,49.36 -4.05,702.24 10.18,777.22 7.86,41.39 33.33,60.98 74.49,60.98 93.04,0 67.73,-125.04 67.73,-220.14l-0.18 -575.9c7.95,-100.08 118.71,-36.01 118.71,-169.16l0 -262.47c0,-25.72 -14.68,-28.74 -33.86,-33.86 -31.34,65.3 15.01,265.84 -13.64,333.49 -17.96,42.4 -70.73,19.9 -96.84,72.49 -18.93,38.12 -8.31,583.8 -8.04,686.23 0.14,54.72 8.9,136.34 -41.08,131.31 -42.65,-4.29 -26.68,-95.91 -26.67,-139.79 0.03,-108.65 14.37,-633.36 -15.3,-678.97 -31.64,-48.63 -78.59,-29.65 -97.86,-79.94 -29.4,-76.73 22.61,-291.92 -22.3,-324.82 -14.27,9.91 -16.94,1.21 -16.94,25.4z"/>
   <path class="fil0" d="M110.06 25.41l0 262.46 33.87 0c17.57,-75.45 8.46,-174.36 8.46,-254 0,-25.72 -14.68,-28.74 -33.86,-33.86 -5.81,10.33 -8.47,9.05 -8.47,25.4z"/>
   <path class="fil0" d="M220.13 25.41l0 262.46 33.86 0c17.58,-75.45 8.47,-174.36 8.47,-254 0,-25.72 -14.69,-28.74 -33.87,-33.86 -5.8,10.33 -8.46,9.05 -8.46,25.4z"/>
   <path class="fil0" d="M1278.46 93.14c16.87,63.18 70.9,4.51 93.9,151.63 5.65,36.13 2.04,43.28 33.09,51.57 45.87,-81.64 -79.88,-260.68 -126.99,-203.2z"/>
   <rect class="fil0" x="5.48" width="31.71" height="325.96" rx="15.86" ry="22.13"/>
   <rect class="fil0" x="115.55" width="31.71" height="287.87" rx="15.86" ry="19.55"/>
  </g>
 </g>
</svg>
