<?xml version="1.0" encoding="UTF-8"?>
<!DOCTYPE svg PUBLIC "-//W3C//DTD SVG 1.1//EN" "http://www.w3.org/Graphics/SVG/1.1/DTD/svg11.dtd">
<!-- Creator: CorelDRAW 2017 -->
<svg xmlns="http://www.w3.org/2000/svg" xml:space="preserve" width="8.3817mm" height="13.885mm" version="1.1" style="shape-rendering:geometricPrecision; text-rendering:geometricPrecision; image-rendering:optimizeQuality; fill-rule:evenodd; clip-rule:evenodd"
viewBox="0 0 86.3 142.97"
 xmlns:xlink="http://www.w3.org/1999/xlink">
 <defs>
  <style type="text/css">
   <![CDATA[
    .fil0 {fill:#737373}
   ]]>
  </style>
 </defs>
 <g id="Слой_x0020_1">
  <metadata id="CorelCorpID_0Corel-Layer"/>
  <g id="_2848077583280">
   <path class="fil0" d="M3.49 127.28l0 -111.59c0,-5.92 1,-11.33 6.97,-11.33l65.38 0c5.98,0 6.97,5.41 6.97,11.33l0 111.59c0,5.92 -1,11.33 -6.97,11.33l-65.38 0c-5.97,0 -6.97,-5.41 -6.97,-11.33zm-3.49 -117.69l0 123.79c0,4.68 4.91,9.59 9.59,9.59l67.13 0c4.68,0 9.59,-4.91 9.59,-9.59l0 -123.79c0,-4.68 -4.91,-9.59 -9.59,-9.59l-67.13 0c-4.68,0 -9.59,4.91 -9.59,9.59z"/>
   <path class="fil0" d="M40.97 35.74c8.83,0 14.4,1.22 19.92,9.72 10.8,16.62 -9.9,38.18 -17.31,52.18 -3.8,-2.79 -17.11,-26.06 -19.31,-32.13 -2.51,-6.94 -3.39,-12.68 0.79,-19.52 2.87,-4.68 8.72,-10.25 15.9,-10.25zm-22.67 18.31c0,18.07 15.02,36.55 24.41,50.56 2.77,-1.85 5.24,-6.71 7.6,-9.83l7.18 -11.12c5.93,-10.3 10.5,-16.79 10.5,-29.61 0,-11.13 -11.54,-22.67 -22.67,-22.67l-4.36 0c-11.13,0 -22.67,11.54 -22.67,22.67z"/>
   <path class="fil0" d="M31.38 58.41c0,-16.03 14.08,-15.97 19.7,-10.98 11.35,10.06 -3.58,29.37 -15.87,18.48 -1.71,-1.52 -3.84,-4.61 -3.84,-7.5zm-4.36 -2.62c0,23.21 32.26,23.21 32.26,0 0,-20.67 -32.26,-20.67 -32.26,0z"/>
   <path class="fil0" d="M7.84 17.43c3.65,2.05 59.22,0.87 68,0.87 3.33,0 0.32,0.27 2.62,-0.87 -0.53,-1.97 -0.84,-3.49 -3.49,-3.49l-63.64 0c-2.57,0 -3.01,1.48 -3.49,3.49z"/>
   <path class="fil0" d="M7.84 116.82c0.53,1.97 0.84,3.49 3.49,3.49l63.64 0c2.65,0 2.96,-1.51 3.49,-3.49 -3.65,-2.05 -59.22,-0.87 -68,-0.87 -1.02,0 -2.41,0.62 -2.62,0.87z"/>
   <path class="fil0" d="M40.1 129.89c0,-2.65 1.51,-2.96 3.49,-3.49 7.98,5.34 -3.49,9.05 -3.49,3.49zm-4.36 -0.87c0,10.97 14.82,9.77 14.82,0.87 0,-10.68 -14.82,-9.33 -14.82,-0.87z"/>
   <path class="fil0" d="M35.74 11.33c14.59,0 16.33,1.53 17.44,-2.62 -1.02,-1.47 -0.13,-1.74 -2.62,-1.74l-14.82 0c-3.73,0 -3.73,4.36 0,4.36z"/>
  </g>
 </g>
</svg>
