<?xml version="1.0" encoding="UTF-8"?>
<!DOCTYPE svg PUBLIC "-//W3C//DTD SVG 1.1//EN" "http://www.w3.org/Graphics/SVG/1.1/DTD/svg11.dtd">
<!-- Creator: CorelDRAW 2017 -->
<svg xmlns="http://www.w3.org/2000/svg" xml:space="preserve" width="12.454mm" height="10.239mm" version="1.1" style="shape-rendering:geometricPrecision; text-rendering:geometricPrecision; image-rendering:optimizeQuality; fill-rule:evenodd; clip-rule:evenodd"
viewBox="0 0 198.19 162.94"
 xmlns:xlink="http://www.w3.org/1999/xlink">
 <defs>
  <style type="text/css">
   <![CDATA[
    .fil1 {fill:#737373}
    .fil0 {fill:#737373;fill-rule:nonzero}
   ]]>
  </style>
 </defs>
 <g id="Слой_x0020_1">
  <metadata id="CorelCorpID_0Corel-Layer"/>
  <g id="_2848011835824">
   <path class="fil0" d="M15.24 4.02l19.47 0 1.23 0 0 0.18 0 0.05c1.25,0.49 2.14,1.71 2.14,3.14 0,1.43 -0.89,2.65 -2.14,3.14l0 0.23 -20.7 0c-2.34,0 -4.46,0.96 -6,2.5 -1.55,1.53 -2.5,3.66 -2.5,6l0 27.88 184.71 0 0 -27.88c0,-2.34 -0.96,-4.46 -2.5,-6 -1.53,-1.55 -3.66,-2.5 -6,-2.5l-20.7 0 0 -0.16c-1.36,-0.44 -2.34,-1.71 -2.34,-3.21 0,-1.5 0.98,-2.77 2.34,-3.21l0 -0.16 1.03 0 19.67 0c4.18,0 7.99,1.72 10.76,4.48 2.77,2.75 4.48,6.56 4.48,10.76l0 128.44c0,4.19 -1.72,8 -4.47,10.76 -2.77,2.76 -6.58,4.47 -10.76,4.47l-167.71 0c-4.19,0 -8.01,-1.72 -10.77,-4.47 -2.76,-2.77 -4.47,-6.58 -4.47,-10.76l0 -128.44c0,-4.18 1.72,-7.99 4.48,-10.76 2.75,-2.77 6.57,-4.48 10.76,-4.48zm-8.5 49.85l0 93.83c0,2.35 0.95,4.47 2.49,6 1.55,1.54 3.68,2.5 6.02,2.5l167.71 0c2.34,0 4.47,-0.95 6,-2.49 1.54,-1.55 2.5,-3.68 2.5,-6.02l0 -93.83 -184.71 0zm46.04 -43.27c-1.37,-0.43 -2.36,-1.7 -2.36,-3.21 0,-1.51 0.99,-2.79 2.36,-3.21l0 -0.15 1.01 0 90.09 0 1.54 0 0 0.18 0 0.19c1.09,0.56 1.83,1.69 1.83,3 0,1.31 -0.74,2.44 -1.83,3l0 0.37 -92.63 0 0 -0.16z"/>
   <rect class="fil1" x="41.37" y="-0" width="6.53" height="23.81" rx="2.34" ry="0.5"/>
   <rect class="fil1" x="150.43" y="-0" width="6.61" height="23.81" rx="2.37" ry="0.5"/>
   <path class="fil1" d="M161.86 15.47c2.14,2.12 3.47,5.06 3.47,8.31 0,6.44 -5.22,11.67 -11.67,11.67 -6.45,0 -11.67,-5.22 -11.67,-11.67 0,-3.25 1.33,-6.19 3.47,-8.31l0.15 0.23c0.33,0.25 2.33,0.57 2.61,2.43l-0.01 2.26c-0.39,0.81 -0.62,1.73 -0.62,2.7 0,3.19 2.41,5.81 5.5,6.16l0.07 0.04 0.09 -0.02 0.39 0.02 0.39 -0.02 0.09 0.02 0.07 -0.04c3.1,-0.34 5.5,-2.97 5.5,-6.16 0,-0.97 -0.22,-1.88 -0.62,-2.7l-0.01 -2.26c0.28,-1.86 2.28,-2.18 2.61,-2.43l0.15 -0.23z"/>
   <rect class="fil1" x="137.77" y="116.04" width="5.96" height="25.41" rx="2.25" ry="1.12"/>
   <rect class="fil1" x="110.33" y="116.04" width="5.96" height="25.41" rx="2.25" ry="1.12"/>
   <rect class="fil1" x="82.04" y="116.04" width="5.96" height="25.41" rx="2.25" ry="1.12"/>
   <rect class="fil1" x="54.3" y="116.04" width="5.96" height="25.41" rx="2.25" ry="1.12"/>
   <rect class="fil1" x="137.77" y="67.44" width="5.96" height="25.41" rx="2.25" ry="1.12"/>
   <rect class="fil1" x="110.33" y="67.44" width="5.96" height="25.41" rx="2.25" ry="1.12"/>
   <rect class="fil1" x="82.04" y="67.44" width="5.96" height="25.41" rx="2.25" ry="1.12"/>
   <rect class="fil1" x="54.3" y="67.44" width="5.96" height="25.41" rx="2.25" ry="1.12"/>
   <path class="fil1" d="M154.34 101.03l-110.48 0c-3.53,0 -9.3,5.44 -0.17,6.77l109.51 0.09c11.22,-0.85 4.59,-6.86 1.14,-6.86z"/>
   <path class="fil1" d="M52.7 15.47c2.14,2.12 3.47,5.06 3.47,8.31 0,6.44 -5.22,11.67 -11.67,11.67 -6.45,0 -11.67,-5.22 -11.67,-11.67 0,-3.25 1.33,-6.19 3.47,-8.31l0.15 0.23c0.33,0.25 2.33,0.57 2.61,2.43l-0.01 2.26c-0.39,0.81 -0.62,1.73 -0.62,2.7 0,3.19 2.41,5.81 5.5,6.16l0.07 0.04 0.09 -0.02 0.39 0.02 0.39 -0.02 0.09 0.02 0.07 -0.04c3.1,-0.34 5.5,-2.97 5.5,-6.16 0,-0.97 -0.22,-1.88 -0.62,-2.7l-0.01 -2.26c0.28,-1.86 2.28,-2.18 2.61,-2.43l0.15 -0.23z"/>
  </g>
 </g>
</svg>
