<?xml version="1.0" encoding="UTF-8"?>
<!DOCTYPE svg PUBLIC "-//W3C//DTD SVG 1.1//EN" "http://www.w3.org/Graphics/SVG/1.1/DTD/svg11.dtd">
<!-- Creator: CorelDRAW 2017 -->
<svg xmlns="http://www.w3.org/2000/svg" xml:space="preserve" width="9.3979mm" height="13.1234mm" version="1.1" style="shape-rendering:geometricPrecision; text-rendering:geometricPrecision; image-rendering:optimizeQuality; fill-rule:evenodd; clip-rule:evenodd"
viewBox="0 0 109.18 152.46"
 xmlns:xlink="http://www.w3.org/1999/xlink">
 <defs>
  <style type="text/css">
   <![CDATA[
    .fil0 {fill:#737373}
   ]]>
  </style>
 </defs>
 <g id="Слой_x0020_1">
  <metadata id="CorelCorpID_0Corel-Layer"/>
  <g id="_2848077592112">
   <path class="fil0" d="M20.66 148.53l-15.74 0 0 -51.15c12.1,0 18.69,-1.75 18.69,2.95l0 45.25c0,2.27 -0.68,2.95 -2.95,2.95zm32.46 -51.15c4.82,4.4 5.73,3.01 20.66,2.95 7.69,-0.03 13.77,-1.29 13.77,4.92 0,8.24 -14.58,0.3 -18.69,5.9 1.96,7.33 15.74,-0.84 15.74,5.9 0,6.67 -4.67,5.38 -6.87,5.48l-9.86 0.42 0 3.93c7.86,0 6.24,-0.54 12.79,0.98 0.7,2.91 3.62,7.67 -4.86,7.93 -5.37,0.16 -6.45,-1.45 -8.91,1.91 2,7.48 6.81,-1.55 11.8,5.9 -1.4,5.26 -2.93,3.93 -14.75,3.93 -7.74,0 -11.65,-0.63 -18.66,-1.01 -5.49,-0.3 -12.25,-1.94 -17.73,-1.94l0 -41.31c0,-2.9 3.55,-3.72 6.21,-5.59 2.93,-2.07 4.28,-3.59 6.33,-6.45 3.97,-5.53 3.8,-8.47 4.8,-13.89 1.05,-5.71 -0.86,-3.27 2.33,-4.56 4.95,-2.16 6.89,11.11 6.89,13.77 0,5.46 -0.98,5.83 -0.98,10.82zm4.92 -24.59l0 -16.72 8.85 0 0 39.35 -8.85 0c0.1,-4.63 1.49,-5.13 0.87,-10.64 -0.45,-4.07 -0.87,-6.44 -0.87,-11.98zm-37.38 -68.85l83.61 0 0 47.21 -83.61 0 0 -47.21zm-4.92 49.18c0,2.27 0.68,2.95 2.95,2.95l34.43 0 0 12.79c-4.35,-2.09 -9.33,-1.46 -11.62,2.15 -2.34,3.68 -0.63,15 -9.26,22.27 -5.9,4.97 -5.4,-0.81 -11.57,-0.81 -8.83,0 -13.26,-0.74 -20.66,0.98l0 59.02 23.61 0c7.65,0 -6.64,-4.64 19.94,-1.25 10.74,1.37 20.39,1.25 31.21,1.25 3.52,0 6.11,-1.86 7.5,-4.38 2.3,-4.16 0.27,-5.58 -0.62,-9.39 5.98,-1.6 5.38,-8.19 2.95,-12.79 6.18,-4.14 5.96,-8.09 2.95,-13.77 7.83,-2.09 7.41,-16.72 -6.88,-16.72l-8.85 0 0 -39.35 37.38 0 0 -56.07 -93.44 0 0 53.12z"/>
   <g>
    <rect class="fil0" x="37.13" y="18.69" width="50.66" height="3.93" rx="1.35" ry="1.27"/>
    <rect class="fil0" x="37.13" y="33.26" width="50.66" height="3.93" rx="1.35" ry="1.27"/>
   </g>
  </g>
 </g>
</svg>
