<?xml version="1.0" encoding="UTF-8"?>
<!DOCTYPE svg PUBLIC "-//W3C//DTD SVG 1.1//EN" "http://www.w3.org/Graphics/SVG/1.1/DTD/svg11.dtd">
<!-- Creator: CorelDRAW 2017 -->
<svg xmlns="http://www.w3.org/2000/svg" xml:space="preserve" width="12.6151mm" height="11.4298mm" version="1.1" style="shape-rendering:geometricPrecision; text-rendering:geometricPrecision; image-rendering:optimizeQuality; fill-rule:evenodd; clip-rule:evenodd"
viewBox="0 0 203.11 184.02"
 xmlns:xlink="http://www.w3.org/1999/xlink">
 <defs>
  <style type="text/css">
   <![CDATA[
    .fil0 {fill:#737373}
   ]]>
  </style>
 </defs>
 <g id="Слой_x0020_1">
  <metadata id="CorelCorpID_0Corel-Layer"/>
  <g id="_2847994589296">
   <path class="fil0" d="M6.81 167.67l0 -88.6 124.05 0 0 76.34 -104.96 0c-13.32,0 -12.49,7.44 -19.08,12.27zm65.43 -160.85l124.05 0 0 87.24c-5.54,-3.71 -8.54,-10.9 -16.36,-10.9l-42.26 0c-0.12,-5.43 -1.58,-10.91 -6.82,-10.91l-58.62 0 0 -65.43zm-6.82 0l0 65.43 -58.61 0c-3.28,0 -4.01,2.21 -6.82,4.09l0 107.69c21.58,-14.45 7.04,-21.96 35.44,-21.82l98.15 0c1.88,-2.81 4.09,-3.54 4.09,-6.82l0 -65.43 42.26 0c5.07,0 17.22,17.82 23.17,21.81l0 -107.69c-2.81,-1.88 -3.54,-4.09 -6.82,-4.09l-124.05 0c-3.18,0 -6.82,3.64 -6.82,6.82z"/>
   <g>
    <rect class="fil0" x="91.14" y="30.24" width="86.26" height="6.32" rx="2.3" ry="2.04"/>
    <rect class="fil0" x="91.14" y="53.66" width="86.26" height="6.32" rx="2.3" ry="2.04"/>
   </g>
   <g>
    <rect class="fil0" x="25.56" y="102.24" width="86.26" height="6.32" rx="2.3" ry="2.04"/>
    <rect class="fil0" x="25.56" y="125.66" width="86.26" height="6.32" rx="2.3" ry="2.04"/>
   </g>
  </g>
 </g>
</svg>
