<?xml version="1.0" encoding="UTF-8"?>
<!DOCTYPE svg PUBLIC "-//W3C//DTD SVG 1.1//EN" "http://www.w3.org/Graphics/SVG/1.1/DTD/svg11.dtd">
<!-- Creator: CorelDRAW 2017 -->
<svg xmlns="http://www.w3.org/2000/svg" xml:space="preserve" width="14.6475mm" height="9.9363mm" version="1.1" style="shape-rendering:geometricPrecision; text-rendering:geometricPrecision; image-rendering:optimizeQuality; fill-rule:evenodd; clip-rule:evenodd"
viewBox="0 0 283 191.98"
 xmlns:xlink="http://www.w3.org/1999/xlink">
 <defs>
  <style type="text/css">
   <![CDATA[
    .fil0 {fill:#737373}
   ]]>
  </style>
 </defs>
 <g id="Слой_x0020_1">
  <metadata id="CorelCorpID_0Corel-Layer"/>
  <path class="fil0" d="M18 145.79l247.01 0c-7.83,10.69 -40.64,19.63 -60.53,19.63l-125.96 0c-19.88,0 -52.69,-8.94 -60.52,-19.63zm19.63 -8.18l-13.09 0c4.32,-18.54 4.57,-39.01 21.75,-60.04 4.53,-5.55 7.58,-10.15 13.08,-14.73 46.99,-39.16 115.13,-39.33 163.35,-0.72 13.73,10.99 26.99,34.1 31.52,51.9 2.11,8.29 2.42,15.85 4.22,23.59l-212.65 0c0,-28.56 16.46,-51.72 36.66,-66.39 5.29,-3.85 24.76,-11.82 12.41,-14.85 -4.88,-1.2 -18.06,8.86 -21.99,11.81 -7.06,5.3 -12.14,10.21 -16.98,17.38 -8.82,13.07 -18.28,30.73 -18.28,52.06zm89.97 -114.51c0,-20.58 27.81,-18.33 27.81,-1.63 0,8.41 -7.94,3.27 -13.09,3.27 -4.83,0 -14.72,4.23 -14.72,-1.64zm-111.23 114.51l-16.36 0c2.53,9.49 16.22,18.62 24.51,22.93 8.78,4.57 23.82,10.4 36.02,11.42 -2.96,4.41 -12.34,9.84 -12.6,15.25 -0.3,6.23 3.46,5.12 7.12,2.55l4.03 -4.5c0.23,-0.26 0.54,-0.62 0.78,-0.87 10.25,-10.93 31.03,-10.79 51.38,-10.79l86.75 1.58c24.37,1.23 21.24,6.91 29.05,13.77 3.25,2.86 6.79,5.35 7.99,-0.64 1.1,-5.48 -9.86,-12.31 -12.56,-16.34 18.21,-1.51 55.87,-16.91 60.52,-34.35l-16.36 0c-5.43,-23.31 -0.09,-21.33 -14.17,-49.63 -13.99,-28.11 -41.83,-50.11 -73.15,-57.72 -21.81,-5.3 -11.53,1.74 -17.13,-15.58 -6.14,-19 -33.68,-19.73 -40.93,-1.19 -6.61,16.89 6.26,11.24 -16.26,16.46 -15.44,3.58 -33.05,12.19 -44.1,21.33 -20.22,16.72 -31.57,33.44 -39.46,58.69 -2.87,9.18 -2.9,18.3 -5.08,27.64z"/>
 </g>
</svg>
