<?xml version="1.0" encoding="UTF-8"?>
<!DOCTYPE svg PUBLIC "-//W3C//DTD SVG 1.1//EN" "http://www.w3.org/Graphics/SVG/1.1/DTD/svg11.dtd">
<!-- Creator: CorelDRAW 2017 -->
<svg xmlns="http://www.w3.org/2000/svg" xml:space="preserve" width="11.8641mm" height="12.7137mm" version="1.1" style="shape-rendering:geometricPrecision; text-rendering:geometricPrecision; image-rendering:optimizeQuality; fill-rule:evenodd; clip-rule:evenodd"
viewBox="0 0 326.34 349.71"
 xmlns:xlink="http://www.w3.org/1999/xlink">
 <defs>
  <style type="text/css">
   <![CDATA[
    .fil0 {fill:#737373}
   ]]>
  </style>
 </defs>
 <g id="Слой_x0020_1">
  <metadata id="CorelCorpID_0Corel-Layer"/>
  <g id="_2848077594864">
   <path class="fil0" d="M176.99 37.21c11.63,7.79 33.31,28.11 42.27,39.24 13.19,16.39 23.86,30.97 34.48,49.36 18.68,32.3 35.03,91.11 35.03,130.32l-69.87 0c-26.93,0 -21.05,31.29 -16.38,48.98 4.42,16.78 12.88,34.86 -13.9,34.86 -24.1,0 -2.33,-43.36 -2.33,-60.55 0,-30.43 -55.89,-28.94 -55.89,-11.64 0,24.09 7.75,19.53 8.62,30.64 1.61,20.73 -31.91,21.24 -31.91,1.97 0,-10.02 9.31,-10.02 9.31,-30.28 0,-16.13 -29.07,-18.09 -40.99,-8.39 -19.41,15.78 -0.12,56.1 -0.12,56.14 3.69,22.04 -31.08,23.47 -31.08,3.49 0,-5.92 23.24,-44.76 -1.88,-61 -8.17,-5.28 -15.97,-4.21 -28.4,-4.21 6.5,-9.7 12.67,-16.99 19.57,-27.01l61.28 -83.11c7.19,-9.58 74.92,-103.94 82.18,-108.79zm-177 228.23c36.71,0 44.25,-2.49 44.25,25.62 0,13.46 -9.32,13.37 -9.32,30.28 0,25.92 43.11,34.8 50.01,3.28 3.91,-17.88 -8.09,-4.51 -8.09,-47.53 0,-11.95 30.28,-18.11 30.28,-4.66 0,12.86 -9.32,12.74 -9.32,27.95 0,29.6 51.24,33.33 51.24,-2.33 0,-6.39 -19.79,-32.6 -2.33,-32.6 26.9,0 34.8,-0.24 27.02,34 -2.52,11.1 -12.28,27.41 -0.48,41.93 9.97,12.26 43.33,14.48 43.33,-17.71 0,-11.4 -12.94,-44.61 -7.31,-53.74 5.04,-8.17 49.6,-4.54 60.89,-4.48 39.31,0.23 27.67,-0.31 25.61,-34.94 -1.13,-18.92 -5.87,-37.81 -10.79,-54.42 -17.52,-59.14 -48.53,-99.06 -91.08,-137.15 -5.37,-4.81 -12.14,-11.48 -19.23,-13.37 -9.59,6.42 -35.82,45.45 -44.91,57.56 -15.53,20.67 -28.97,39.39 -44.58,60.22l-76.21 103.11c-6.06,7.81 -8.71,7.61 -8.96,18.98z"/>
   <path class="fil0" d="M326.04 265.44c3.75,-77.52 -27.41,-164.47 -82.07,-218.35 -12.24,-14.54 -25.1,-25.74 -37.85,-37.83 -7.37,-6.31 -12.81,-12.81 -17.48,-6.98 -5.5,6.61 24.91,25.08 47.75,52.4l22.79 26.1c31.86,42.28 57.26,113.37 56.39,168.36 -0.21,13.53 -1.26,15.33 10.47,16.3z"/>
   <path class="fil0" d="M167.67 207.22c0,-24.84 39.59,-25.42 39.59,0 0,26.4 -39.59,24.39 -39.59,0zm-9.32 0c0,28.57 36.66,36.84 51.7,19.1 9.98,-11.77 13.88,-47.04 -26.08,-47.04 -13.85,0 -25.62,13.9 -25.62,27.95z"/>
   <path class="fil0" d="M195.62 139.68l-9.83 -8.8c3.78,-5.38 7.91,-7.96 10.05,-11.95 0.25,-0.47 0.51,-1.1 0.73,-1.6 3.55,-7.99 0.48,-12.59 6.04,-12.59 18.09,0 18.63,14.29 18.63,25.62 -21.59,0 -6.29,-0.91 -25.62,9.32zm-20.96 -11.64c2.83,10.59 12.83,20.17 20.96,25.62 0.42,-0.36 1.09,-1.45 1.28,-1.05 0.68,1.48 6.97,-9.44 15.79,-12.16 9.66,-2.97 14.56,0.33 18.45,-11.97 6.14,-19.42 -30.2,-53.16 -42.57,-19.13 -4.93,13.57 -5.8,6.58 -13.91,18.69z"/>
   <path class="fil0" d="M79.18 209.55c2.64,-4.99 3.76,-9.52 11.38,-8.87 13.2,1.13 11.7,21.23 -1.75,20.08 -10.53,-0.9 -6.81,-6.37 -9.63,-11.21zm-9.32 0c0,28.52 39.59,24.93 39.59,2.33 0,-28.52 -39.59,-24.93 -39.59,-2.33z"/>
   <path class="fil0" d="M251.51 223.52c-1.12,-7.18 9.45,-11.53 10.96,-1.98 1.48,9.33 -9.94,8.54 -10.96,1.98zm-9.32 -2.33c0,23.48 30.28,19.63 30.28,2.33 0,-23.48 -30.28,-19.63 -30.28,-2.33z"/>
   <path class="fil0" d="M132.74 149c0.15,-6.56 -1.78,-9.67 4.96,-10.46 5.16,-0.61 5.35,3.15 6.68,8.13 -6.21,2.98 -2.48,2.11 -11.64,2.33zm-9.32 -4.66c0,6.29 1.11,6.42 2.33,11.65 10.38,2.42 27.95,5.58 27.95,-11.65 0,-18.74 -30.28,-21.87 -30.28,0z"/>
  </g>
 </g>
</svg>
