<?xml version="1.0" encoding="UTF-8"?>
<!DOCTYPE svg PUBLIC "-//W3C//DTD SVG 1.1//EN" "http://www.w3.org/Graphics/SVG/1.1/DTD/svg11.dtd">
<!-- Creator: CorelDRAW 2017 -->
<svg xmlns="http://www.w3.org/2000/svg" xml:space="preserve" width="12.6582mm" height="12.5946mm" version="1.1" style="shape-rendering:geometricPrecision; text-rendering:geometricPrecision; image-rendering:optimizeQuality; fill-rule:evenodd; clip-rule:evenodd"
viewBox="0 0 371.76 369.89"
 xmlns:xlink="http://www.w3.org/1999/xlink">
 <defs>
  <style type="text/css">
   <![CDATA[
    .fil0 {fill:#737373}
   ]]>
  </style>
 </defs>
 <g id="Слой_x0020_1">
  <metadata id="CorelCorpID_0Corel-Layer"/>
  <path class="fil0" d="M10.41 253.03c15.75,0 31.5,0.05 47.25,-0.01l129.6 1.48c6.64,0.16 5.08,-1.47 14.61,-1.47l159.14 0c-5.47,23.46 -6.71,34.84 -21.69,50.42 -10.71,11.14 -27.29,24.18 -47.93,24.18l-211.36 0c-26.21,0 -53.62,-24.14 -61.9,-45.02 -3.59,-9.05 -4.8,-23.04 -7.72,-29.57zm197.87 -216.26c8.11,-3.4 16.58,-9.55 22.46,-13.48 11.89,-7.96 23.57,-12.86 25.85,-21.4 -11.58,-5.56 -27,10.01 -46.88,22.75 -4.32,2.77 -7.11,3.96 -8.73,7.37l0.9 0.63 6.4 4.14zm23.44 109.34c8.65,0 14.92,-1.52 14.92,7.46 0,5.58 -1.97,5.46 -4.97,9.95 -12.29,-2.86 -12.82,-6.25 -9.95,-17.41zm7.46 27.35c9.74,0 17.41,-9.25 17.41,-19.89 0,-17.95 -19.05,-24.83 -30.64,-13.23 -12.84,12.84 -1.15,33.13 13.23,33.13zm52.22 27.35c3,4.49 4.97,4.37 4.97,9.95 0,8.98 -6.27,7.46 -14.92,7.46 -2.68,-11.5 -2.97,-14.4 9.95,-17.41zm14.92 9.95c0,-10.64 -7.67,-19.89 -17.41,-19.89 -13.91,0 -25.18,18.81 -14.46,31.78 10.73,12.99 31.87,7.55 31.87,-11.89zm-174.06 -64.65c8.65,0 14.92,-1.52 14.92,7.46 0,5.58 -1.97,5.46 -4.97,9.95 -14.33,-3.34 -13.07,-4.36 -9.95,-17.41zm-12.43 7.46c0,10.24 9.65,19.89 19.89,19.89 9.74,0 17.41,-9.25 17.41,-19.89 0,-26.12 -37.3,-23.21 -37.3,0zm72.11 47.25c3.01,4.49 4.98,4.37 4.98,9.95 0,8.98 -6.28,7.46 -14.92,7.46 -2.68,-11.5 -2.97,-14.4 9.94,-17.41zm-22.38 9.95c0,21.45 37.3,28.81 37.3,0 0,-10.64 -7.67,-19.89 -17.4,-19.89 -10.24,0 -19.89,9.65 -19.89,19.89zm-89.52 0c0,-7.87 6.12,-8.48 12.43,-9.95 15.08,22.51 -12.43,21.47 -12.43,9.95zm-9.94 0c0,25.01 37.3,24.82 37.3,0 0,-27.26 -37.3,-24.8 -37.3,0zm27.35 154.17c2.91,4.19 0.36,4.97 7.46,4.97l161.63 0c7,0 4.61,-1.07 7.46,-4.97 -2.91,-4.19 -0.36,-4.97 -7.46,-4.97l-161.63 0c-4.5,0 -6.82,1.24 -7.46,4.97zm67.82 -310.08c-16.64,7.89 -109.67,68.8 -131.01,82.77l-31.41 21.44c-0.23,0.32 -5.44,-3.56 -1.17,5.86 3.57,7.86 3.2,2.36 4.79,2.18l153.2 -98.03c9.88,-6.28 12.54,-7.76 12.55,-9.71l-6.95 -4.51zm-50.42 -52.96c2.12,7.94 6.4,8.67 12.38,12.48l48.27 31.3c11.32,7.58 20.73,12.96 31.84,20.38l154.38 99.89c2.9,1.25 4.5,6.78 8.03,-1.01 3.22,-7.1 4.25,-3.29 -10.12,-12.41l-209.98 -135.7c-6.09,-4.07 -27.91,-22.71 -34.81,-14.92zm-57.19 213.85c0,-24.05 6.51,-37.3 34.81,-37.3 33.99,0 42.64,64.65 -7.46,64.65 -12.64,0 -27.35,-14.71 -27.35,-27.35zm233.74 27.35c-50.77,0 -39.49,-64.65 -7.46,-64.65 19.94,0 36.78,6.66 36.8,32.34 0.01,15.83 -12.56,32.31 -29.34,32.31zm-99.46 0c-50.88,0 -39.61,-64.65 -7.46,-64.65 52.61,0 41.48,64.65 7.46,64.65zm54.71 -34.81c0,17.13 4.91,23.58 12.43,34.81l-42.27 0c5.49,-8.2 8.58,-9.36 12.08,-20.36 4.44,-13.94 0.66,-13.15 0.35,-26.88 15.95,3.82 4.81,3.51 19.89,0 -1.3,5.57 -2.49,5.72 -2.49,12.43zm-87.03 34.81l-42.27 0c14.82,-22.13 12.43,-11.69 12.43,-47.24 15.94,3.82 4.8,3.51 19.89,0 -2.99,6.23 -3.78,17.1 -1.61,26.44 1.99,8.55 7.54,14.82 11.55,20.81zm-52.22 -84.54c0,-54.64 62.16,-42.23 62.16,-9.95 0,57.94 -62.16,39.12 -62.16,9.95zm136.76 27.35c-42.85,0 -43.78,-38.38 -28.14,-55.5 15.96,-17.46 52.72,-10.51 54.92,21.13 1.12,16.06 -10.66,34.36 -26.78,34.36zm-144.22 -17.41c-14.9,-1.24 -20.41,-3.26 -33.86,5.93 -17.13,11.69 -18.36,22.79 -18.36,38.83 0,16.83 6.11,20.39 12.43,29.84 -20.46,0 -43.05,-1.39 -59.68,2.49 0,27.04 8.75,44.97 20.89,61.17 12.28,16.4 28.9,25.63 51.22,30.83 -6.46,9.65 -13.67,17.38 -14.92,32.32 14.11,-1.17 9.19,-7.55 16.9,-17.92 4.18,-5.62 13.78,-11.92 22.89,-11.92l176.55 0c28.51,0 21.27,28.3 39.79,29.84 -1.25,-14.95 -8.46,-22.68 -14.92,-32.32 43.96,-10.24 72.11,-44.66 72.11,-92.01 -15.58,-3.63 -33.13,-2.49 -52.22,-2.49 1.74,-6.51 12.43,-19.63 12.43,-29.84 0,-29.77 -23.54,-51.44 -52.22,-44.76 0.85,-10.22 2.48,-5.55 2.48,-14.92 0,-19.77 -17.87,-42.27 -37.3,-42.27 -14.81,0 -30.22,0.11 -40.73,18.95 -5.55,9.94 -9.96,25.87 -4.03,38.24 -8.45,-1.58 -15.12,-1.64 -19.89,0 1.25,-9.95 1.27,-10.85 0.7,-18.36 -2.33,-28.4 -21.19,-38.83 -47.94,-38.83 -21.69,0 -44.28,32.27 -32.32,57.19z"/>
 </g>
</svg>
