<?xml version="1.0" encoding="UTF-8"?>
<!DOCTYPE svg PUBLIC "-//W3C//DTD SVG 1.1//EN" "http://www.w3.org/Graphics/SVG/1.1/DTD/svg11.dtd">
<!-- Creator: CorelDRAW 2017 -->
<svg xmlns="http://www.w3.org/2000/svg" xml:space="preserve" width="9.4539mm" height="12.8693mm" version="1.1" style="shape-rendering:geometricPrecision; text-rendering:geometricPrecision; image-rendering:optimizeQuality; fill-rule:evenodd; clip-rule:evenodd"
viewBox="0 0 195.69 266.39"
 xmlns:xlink="http://www.w3.org/1999/xlink">
 <defs>
  <style type="text/css">
   <![CDATA[
    .fil0 {fill:#737373}
   ]]>
  </style>
 </defs>
 <g id="Слой_x0020_1">
  <metadata id="CorelCorpID_0Corel-Layer"/>
  <path class="fil0" d="M-0 112.16c0,17.83 4.98,18.13 22.35,35.49l55.21 55.21c14.39,14.39 25.5,32.29 46.88,17.97 4.63,6.91 25.96,26.73 34.61,35.49 4.53,4.58 6.54,9.42 14.46,10.07 -0.02,-0.29 -0.07,-0.58 -0.13,-0.89 1.13,-0.65 1.89,-1.86 1.89,-3.26 0,-2.05 -1.65,-3.71 -3.68,-3.74 -0.52,-1.18 -1.62,-2.04 -2.94,-2.21 -9.05,-12.54 -28.11,-29.01 -35.01,-35.91 -5.21,-5.21 -16.17,-17.56 -21.28,-21.19 -5.92,-4.2 -10.11,-2.24 -5.22,5.22 3.72,5.68 8.12,4.8 10.29,12.9 -15.35,4.07 -23.4,-5.14 -35.48,-18.85l-51.71 -53.44c-11.18,-11.18 -23.22,-17.91 -23.22,-32.86 0,-6.89 7.09,-12.27 17.52,-12.27 10.57,0 46.51,40.38 55.64,49.51 7.44,7.44 40.41,38.02 44.66,46.47 2.88,5.74 -0.32,5.57 6.6,7.42 9.15,-10.95 -34.23,-47.38 -47.76,-60.9 -10.41,-10.41 -44.36,-49.51 -57.4,-49.51 -11.86,0 -26.29,4.57 -26.29,19.28zm129.63 -6.42c1.22,0 2.31,0.59 3,1.5 0.4,0.25 0.79,0.53 1.18,0.83 1.29,0.29 2.33,1.24 2.74,2.47 2.46,2.49 5.22,5.81 9.35,9.94l34.17 34.17c3.97,3.97 9.48,7.33 12.44,12.44 1.8,0.27 3.18,1.83 3.18,3.7 0,2.07 -1.68,3.75 -3.75,3.75 -1.53,0 -2.85,-0.92 -3.43,-2.24 -1.94,-0.03 -3.53,-1.55 -3.67,-3.46 -12.07,-8.36 -24.91,-25.38 -39.38,-39.16 -21.88,5.1 -20.35,8.56 -47.76,-18.84l-53.45 -55.21c-16.54,-16.54 -23.22,-17.2 -23.22,-36.36 0,-14.7 14.42,-19.28 26.29,-19.28 12.58,0 48.92,41.04 59.15,51.26 9.69,9.68 16.57,18.32 26.29,28.04 5.1,5.1 8.98,8.93 14.09,13.96 4.81,4.74 9.13,9.86 5.63,17.15 -7.74,-2.07 -5.88,-7.75 -11.8,-14.49l-39.46 -39.4c-9.19,-9.19 -17.1,-17.1 -26.29,-26.29 -9.57,-9.57 -29.06,-34.6 -43.67,-18.26 -12.83,14.36 11.13,33.03 20.01,41.92 8.9,8.9 16.51,16.51 25.41,25.41 8.9,8.9 16.51,16.51 25.41,25.41 17.17,17.17 18.93,23.89 36.37,19.72 -1.37,-5.12 -4.09,-7.12 -6.63,-9.14 -0.95,-0.32 -1.74,-1.01 -2.18,-1.9l-0.15 -0.16c-2,-0.08 -3.6,-1.72 -3.6,-3.74 0,-0.76 0.23,-1.47 0.62,-2.06 -0.14,-0.69 -0.25,-1.44 -0.32,-2.27 1.19,0.1 2.25,0.3 3.23,0.6l0.22 -0.01zm-36.63 83.6c0.43,0.57 0.69,1.28 0.69,2.05 0,1.87 -1.52,3.39 -3.39,3.39 -1.05,0 -1.98,-0.48 -2.6,-1.22 -5.82,0.63 -4.59,-20.39 -5.33,-23.56 -36.61,0 -22.67,-10.77 -26.29,-26.29 -14.76,0 -26.29,0.77 -26.29,-14.02 0,-10.23 2.02,-0.57 0.31,-9.43 -0.32,-1.68 -0.78,-2.43 -1.2,-2.79 -0.14,-0.07 -0.28,-0.16 -0.41,-0.25 -0.45,-0.18 -0.76,-0.07 -0.64,-0.6 -0.48,-0.59 -0.77,-1.34 -0.77,-2.15 0,-1.87 1.52,-3.39 3.39,-3.39 1.62,0 2.98,1.14 3.31,2.67 11.57,6.61 -3.82,22.96 10.04,22.96 7.12,0 7.52,-3.22 14.33,1.32 17.69,11.8 -8.2,24.16 17.2,24.98 20.71,0.66 13.19,11.86 15.3,22.07 0.85,4.1 4.33,1.9 2.36,4.27zm19.66 -93.29c0.99,0.59 1.66,1.67 1.66,2.91 0,1.87 -1.52,3.39 -3.39,3.39 -1.86,0 -3.37,-1.5 -3.39,-3.35l-0.63 -0.43c-5.1,-3.59 -2.18,-9.12 -3.57,-16.16 -1.79,-9.08 -5.42,-3.97 -15.33,-5.7 -18.09,-3.15 -4.98,-22.11 -14.75,-25.56 -6.46,-2.28 -10.3,1.41 -16.65,-2.62 -6.3,-3.8 -5.1,-14.31 -4.77,-21.77 -1.56,-0.3 -2.75,-1.67 -2.75,-3.33 0,-1.5 0.97,-2.77 2.31,-3.21 -0.15,-0.39 -0.34,-0.71 -0.58,-0.95 0.75,0.23 1.43,0.49 2.03,0.8 1.3,0.14 2.38,1.02 2.81,2.21 3.15,3.85 2.17,10.07 2.17,16.27 0,6.88 13.68,5.26 21.03,5.26 3,4.48 4.5,3.62 6.05,9.75 3.09,12.22 -11.98,16.54 20.24,16.54 3,4.48 4.5,3.62 6.05,9.75 0.09,4.27 -0.2,9.3 0.09,13.03 0,0.02 0.75,1.49 1.36,3.17z"/>
 </g>
</svg>
