<?xml version="1.0" encoding="UTF-8"?>
<!DOCTYPE svg PUBLIC "-//W3C//DTD SVG 1.1//EN" "http://www.w3.org/Graphics/SVG/1.1/DTD/svg11.dtd">
<!-- Creator: CorelDRAW 2017 -->
<svg xmlns="http://www.w3.org/2000/svg" xml:space="preserve" width="11.8721mm" height="11.684mm" version="1.1" style="shape-rendering:geometricPrecision; text-rendering:geometricPrecision; image-rendering:optimizeQuality; fill-rule:evenodd; clip-rule:evenodd"
viewBox="0 0 323.25 318.13"
 xmlns:xlink="http://www.w3.org/1999/xlink">
 <defs>
  <style type="text/css">
   <![CDATA[
    .fil0 {fill:#737373}
   ]]>
  </style>
 </defs>
 <g id="Слой_x0020_1">
  <metadata id="CorelCorpID_0Corel-Layer"/>
  <g id="_2847574699376">
   <path class="fil0" d="M9.73 223.61l304.3 0c-6.11,12.73 1.16,18.94 -21.25,40.99 -10.91,10.73 -24.74,18.95 -45.6,18.95l-170.59 0c-19.77,0 -33.9,-7.67 -44.44,-17.8 -23.77,-22.85 -15.99,-28.75 -22.41,-42.13zm251.28 -43.8c13.05,6.91 23.05,14.62 23.05,34.58l-27.66 0c0.7,-8.38 2.01,-7.22 3.66,-14.78 1.46,-6.71 0.95,-12.67 0.95,-19.79zm-126.79 11.53c9.82,0 13.46,0.65 20.89,6.77 5.31,4.38 7.28,8.58 9.08,16.28l-59.94 0c3.06,-13.15 13.61,-23.05 29.97,-23.05zm-39.19 23.05l-6.92 0c1.11,-13.25 5.38,-18.59 13.15,-26.04 28.17,-27.04 78.24,-10.96 79.06,26.04 -9.12,-2.43 -5.09,-1.01 -9.32,-9.12 -18.99,-36.44 -67.17,-28.69 -75.98,9.12zm62.24 -82.99c-8.04,12.01 -20.35,12.18 -20.75,29.97 16.73,-1.39 7.47,-13.49 34.53,-25.41 27.82,-12.25 65.48,-0.68 77.46,33.3 2.78,7.88 4.26,16.03 2.84,26.14 -0.05,0.38 -2.48,11.48 -3.26,12.99 -3.21,6.19 -2.4,5.36 -10.13,6 2.39,-10.27 20.81,-47.99 -19.94,-69.97 -39.83,-21.48 -75.36,19.58 -61.13,20.4 4.62,0.26 9.88,-6.9 14.56,-10.03 5.11,-3.42 11.34,-6.39 18.41,-7.17 29.42,-3.21 53.53,25.22 42.61,54.32 -6.44,17.16 -18.89,12.44 -40.62,12.44 -10.65,-45.72 -48.48,-61.24 -94.52,-36.88l-2.31 2.3c-3.45,5.15 -7.16,8.58 -10.63,14.72 -3.98,7.04 -4.59,13.15 -7.81,19.85l-32.27 0c0,-41.2 19.11,-26.42 20.75,-46.11 -21.58,0.48 -30.69,27.08 -32.27,46.11 -5.23,-1.39 -8.85,0.72 -4.2,-17.87 1.81,-7.25 4.8,-13.65 8.71,-19.11 10.14,-14.16 23.12,-14.89 30.07,-25.26 -17.45,-8.38 -50.71,23.54 -50.71,62.24 -19.23,0 -18.06,2.77 -14.24,18.69 7.26,30.22 33.55,56.79 60.34,57.39 -3.06,11.47 -11.14,10.34 -11.53,27.66 13.64,-1.14 8.1,-7.26 15.69,-16.58 11.78,-14.46 66.2,-8.77 94.97,-8.77 22.32,0 44.63,0.02 66.95,-0.1 12.73,-0.07 20.48,0.93 26.94,7.64 8.84,9.19 2.53,16.63 16.77,17.81 -0.39,-17.32 -8.47,-16.2 -11.53,-27.66 29.2,-0.65 62.24,-34.64 62.24,-73.77 -14.1,-6.77 -13.96,5.43 -16.45,-13.52 -1.56,-11.9 -3.12,-15.54 -8.82,-23.45 -6.44,-8.93 -25.67,-27.19 -39.28,-20.66 4.46,16.7 39.19,6.29 39.19,55.33l-4.61 0c0,-23.02 -14.39,-43.89 -34.58,-39.19 -0.63,-28.12 -33.14,-55.02 -69.17,-53.14 -14.66,0.76 -20.75,6.66 -32.26,9.34z"/>
   <path class="fil0" d="M224.12 2.3c-9.61,-4.61 -13.44,1.41 -28.67,10.53 -10.65,6.38 -18.15,11.33 -28.53,17.57 -10.31,6.19 -18.23,11.37 -28.53,17.57 -10.18,6.13 -18.49,10.86 -28.6,17.51l-105.98 65.15c-2.03,2.1 -6.08,-1.88 -2.18,6.68 3.23,7.1 10.4,-0.97 26.44,-10.63 9.45,-5.7 18.1,-11.4 28.51,-17.59l141.25 -86.98c16.7,-10.98 23.74,-10.24 26.29,-19.81z"/>
   <path class="fil0" d="M67.36 163.68c0,10.91 2.23,28.7 13.83,29.97 5.45,-11.78 -14.55,-25.55 3.18,-56.76 15.51,-27.29 51.37,-35.88 76.41,-22.8 6.54,3.42 12.65,12.02 16.15,4.74 2.52,-5.23 0.28,-7.86 -12.03,-13.5 -46.75,-21.43 -97.54,12.37 -97.54,58.35z"/>
   <path class="fil0" d="M173.4 46.11c1.09,10 -1.1,3.76 5.17,8.66l28.68 17.43c13.94,8.32 24.64,15.27 38.61,23.63 13.67,8.18 25.39,15.24 38.64,23.61l28.67 17.97c3.82,2.01 6.16,6.05 8.96,-0.08 3.1,-6.82 -8.38,-10.42 -14.03,-13.81l-124.13 -76.69c-4.24,-2.18 -7.09,-4.65 -10.56,-0.71z"/>
   <path class="fil0" d="M85.8 318.13l152.15 0c-0.54,-6.51 0.05,-9.22 -6.92,-9.22l-138.32 0c-6.56,0 -6.92,2.67 -6.92,9.22z"/>
   <path class="fil0" d="M95.02 179.81l2.31 -2.3c0,-24.64 -0.16,-31.52 14.38,-43.25 5.17,-4.17 12.11,-7 20.35,-7.56 16.03,-1.1 12.91,3.69 25.21,4.71 1.88,-3.35 1.12,-2.44 2.31,-6.92 -17.74,-9.39 -37.01,-10.42 -53.46,1.87 -16.82,12.56 -18,23.48 -18,51.16 3.11,1.75 2.55,1.26 6.92,2.3z"/>
   <path class="fil0" d="M99.64 2.3c2.49,9.33 0.97,4.8 9,9.44l25.68 15.87c2.93,1.82 2.19,1.65 5.93,3.69 6.54,3.56 0.51,4.99 7.23,1.91 15.23,-6.98 -43.02,-33.21 -43.22,-33.21 -1.21,0 -4.35,1.85 -4.61,2.31z"/>
   <path class="fil0" d="M187.24 193.64c10.38,4.61 17.3,-19.59 13.84,-34.58 -3.22,-5.46 -3.22,-6.25 -9.23,-6.92 5.19,12.07 0.63,29.61 -4.61,41.5z"/>
   <path class="fil0" d="M173.4 177.51c2.32,0 4.62,1.15 6.9,-2.32 3,-3.38 2.32,-7.93 2.32,-13.82 0,-6.49 -1.14,-6.92 -4.61,-6.92 -4.6,1.15 -1.65,4.83 -2.29,11.53 -0.97,6.41 -4.72,6.33 -2.32,11.53z"/>
   <ellipse class="fil0" cx="189.31" cy="188.53" rx="3.16" ry="3.12"/>
   <ellipse class="fil0" cx="197.41" cy="156.33" rx="4.18" ry="4.13"/>
  </g>
 </g>
</svg>
