<?xml version="1.0" encoding="UTF-8"?>
<!DOCTYPE svg PUBLIC "-//W3C//DTD SVG 1.1//EN" "http://www.w3.org/Graphics/SVG/1.1/DTD/svg11.dtd">
<!-- Creator: CorelDRAW 2017 -->
<svg xmlns="http://www.w3.org/2000/svg" xml:space="preserve" width="11.8536mm" height="11.7071mm" version="1.1" style="shape-rendering:geometricPrecision; text-rendering:geometricPrecision; image-rendering:optimizeQuality; fill-rule:evenodd; clip-rule:evenodd"
viewBox="0 0 321.97 317.99"
 xmlns:xlink="http://www.w3.org/1999/xlink">
 <defs>
  <style type="text/css">
   <![CDATA[
    .fil0 {fill:#737373}
   ]]>
  </style>
 </defs>
 <g id="Слой_x0020_1">
  <metadata id="CorelCorpID_0Corel-Layer"/>
  <g id="_2848298089072">
   <path class="fil0" d="M232.28 195.47c39.23,0 48.28,64.39 -4.6,64.39 -37.65,0 -38.71,-64.39 4.6,-64.39zm-52.33 25.86l-13.93 -12.51 45.01 -46.11 13.93 12.51 -45.01 46.11zm-53.45 -64.96c0,-39.85 64.39,-48.53 64.39,4.6 0,16.33 -29.21,41.87 -54.78,17.98 -6.41,-5.99 -9.62,-10.73 -9.62,-22.58zm-20.14 -6.34l-13.93 -12.51 45.01 -46.11 13.93 12.51 -45.01 46.11zm-18.96 -32.76c-49,0 -39.72,-64.39 -6.9,-64.39 58.52,0 40.4,64.39 6.9,64.39zm-54.63 -38.54l-12.51 -13.93c6.22,-9.05 14.08,-15.21 21.72,-22.85 7.39,-7.39 14.08,-18.43 24.72,-21.27l12.02 10.98 -45.96 47.08zm-0.56 -39.65c-3.42,5.11 -6.24,7.85 -11.23,11.76 -14.04,11.03 -12.76,20.37 3.91,32.58 10.61,7.77 11.14,2.19 18.82,-2.96 0,28.04 16.69,45.39 43.69,46 -2.85,5.38 -3.95,5.99 -4.6,13.8 22.69,15.19 12.2,26.43 34.5,11.5 0,28.22 14.26,45.99 43.7,45.99 -1.54,2.91 -4.6,7.61 -4.6,11.5 0,0.28 10.56,30.59 32.2,16.1 0.85,10.25 4.65,22.4 10.02,29.08 13.1,16.26 41.17,20.9 58.97,5.42 38.75,25.95 55.19,8.01 55.19,36.8 0,10.59 -10.81,11.5 -18.4,11.5 -11.03,0 -1.67,-9.22 -16.1,-2.3 4.32,16.17 43.69,20.91 43.69,-16.1 0,-23.3 -24,-17.99 -55.19,-34.5 0.47,-5.61 18.92,-34.96 -6.49,-57.9 -7.79,-7.04 -18.29,-11.09 -32.61,-11.09 18.94,-17.97 -13.21,-32.2 -16.1,-32.2 -5.53,0 -6.76,3.73 -11.5,6.9 0,-28.67 -13.77,-46 -43.7,-46 1.54,-2.9 4.6,-7.6 4.6,-11.5 0,-0.28 -10.56,-30.59 -32.2,-16.1 -0.63,-28.17 -17.71,-43.69 -45.99,-43.69 9.54,-18.04 4.52,-22.37 -18.4,-34.5 -7.45,6.47 -17.51,14.81 -23,23 -16.12,-10.8 -29.82,-31.23 -41.4,-32.2 1.23,14.73 20.25,21.25 32.2,39.1z"/>
   <path class="fil0" d="M85.09 68.99c12.54,0 15.74,12.35 19.69,3.66 2.6,-5.71 0.56,-2.52 -0.23,-4.27 -5.71,-12.7 -37.76,-10.57 -36.92,3.21 0.7,11.47 9.01,-2.6 17.45,-2.6z"/>
   <path class="fil0" d="M232.28 202.37c-4.9,0 -18.37,5.21 -19.66,10.36 -2.9,11.57 14.1,-0.16 17.68,-0.5 10.99,-1.03 15.49,11.52 19.39,2.99 0.96,-2.1 2.47,-4.29 -5.16,-8.8 -2.26,-1.33 -9.82,-4.04 -12.25,-4.04z"/>
   <path class="fil0" d="M140.29 140.28c0,13.45 11.1,0 18.4,0 5.99,0 18.4,11.6 18.4,2.3 0,-16.16 -36.79,-12.17 -36.79,-2.3z"/>
  </g>
 </g>
</svg>
