<?xml version="1.0" encoding="UTF-8"?>
<!DOCTYPE svg PUBLIC "-//W3C//DTD SVG 1.1//EN" "http://www.w3.org/Graphics/SVG/1.1/DTD/svg11.dtd">
<!-- Creator: CorelDRAW 2017 -->
<svg xmlns="http://www.w3.org/2000/svg" xml:space="preserve" width="10.6678mm" height="12.8693mm" version="1.1" style="shape-rendering:geometricPrecision; text-rendering:geometricPrecision; image-rendering:optimizeQuality; fill-rule:evenodd; clip-rule:evenodd"
viewBox="0 0 254.84 307.43"
 xmlns:xlink="http://www.w3.org/1999/xlink">
 <defs>
  <style type="text/css">
   <![CDATA[
    .fil0 {fill:#737373}
   ]]>
  </style>
 </defs>
 <g id="Слой_x0020_1">
  <metadata id="CorelCorpID_0Corel-Layer"/>
  <g id="_2847574692880">
   <path class="fil0" d="M20.22 214.39l155.74 0c0,21.67 -8.13,61.11 -10.11,84.95 -38.35,0 -77.02,-0.49 -115.33,0.04 -23.97,0.33 -18,5.46 -23.36,-33.27 -1.42,-10.25 -4.59,-46.44 -6.94,-51.71zm91.49 -145.24c1.95,0 3.54,1.59 3.54,3.54 0,1.95 -1.58,3.53 -3.52,3.54 -2.2,2.47 -7.21,3.88 -6.57,16.81 0,5.72 6.42,14.16 12.14,14.16l80.9 0 -19.62 156.35c-1.83,13.85 -1.13,43.89 -14.77,43.89l-127.42 0c-16.93,0 -14.73,-21.72 -17.59,-43.09l-18.82 -157.14 58.65 0c0,-46.67 50.57,-47.32 50.57,-78.88 0,-8.29 -2.34,-15.38 -10.46,-15.84 -9.95,-0.56 -6.75,7.53 -9.77,13.82l-60.68 0c0.61,-7.27 0.6,-7.46 7.89,-8.29l46.72 0.2c1.31,-15.69 15.5,-13.41 19.05,-13.63 9.06,-0.58 3.79,-4.57 11.29,-4.57 12.65,0 20.75,3.07 24.27,18.2l95.08 -0.02c13.85,-0.13 21.23,-3.88 22.23,8.11l-115.29 0c0,14.75 -4.25,21.59 -10.11,30.34l115.02 26.56c8.66,2.17 9.59,0.45 10.37,9.85 -11.47,-0.26 -91.27,-20.76 -108.4,-25.09 -11.57,-2.92 -27.31,-3.31 -33.18,-11.32 7.1,-9.69 4.49,2.15 12.73,-9.52 10.9,-15.43 3.18,-39.02 -6.66,-39.02 -15.18,0 -2.02,4.59 -2.02,16.18 0,44.02 -50.57,40.18 -50.57,82.92l36.42 0c-4.03,-3.03 -13.15,-32.36 8.08,-38.43l0.18 0.39 0.29 -0.01zm-103.63 46.14l16.18 0 16.18 50.57 117.31 0 12.26 -40.33c3.55,-11.17 0.74,-10.24 18.08,-10.24 0,14.7 -2.86,30.79 -4.92,45.65 -1.81,13.1 -5.19,33.23 -5.19,45.37l-157.76 0c-4.31,-18.52 -9.18,-84.39 -12.14,-91.02zm24.27 0l131.47 0c-0.95,11.4 -9.42,30.81 -12.14,42.47l-105.17 0c-4.97,-10.36 -11.12,-36.15 -14.16,-42.47z"/>
   <path class="fil0" d="M76.85 48.54c-0.81,-9.75 -0.47,-6.72 -20.63,-11.73 -5.58,-1.39 -7.12,-1.86 -12.98,-3.29 -2.19,-0.54 -3.52,-1.07 -6.88,-1.59 -7.71,-1.19 -4.02,-2.21 -6.78,0.56 -9.38,9.38 43.31,16.05 47.27,16.05z"/>
  </g>
 </g>
</svg>
