<?xml version="1.0" encoding="UTF-8"?>
<!DOCTYPE svg PUBLIC "-//W3C//DTD SVG 1.1//EN" "http://www.w3.org/Graphics/SVG/1.1/DTD/svg11.dtd">
<!-- Creator: CorelDRAW 2017 -->
<svg xmlns="http://www.w3.org/2000/svg" xml:space="preserve" width="12.6472mm" height="10.9055mm" version="1.1" style="shape-rendering:geometricPrecision; text-rendering:geometricPrecision; image-rendering:optimizeQuality; fill-rule:evenodd; clip-rule:evenodd"
viewBox="0 0 204.31 176.17"
 xmlns:xlink="http://www.w3.org/1999/xlink">
 <defs>
  <style type="text/css">
   <![CDATA[
    .fil0 {fill:#737373}
   ]]>
  </style>
 </defs>
 <g id="Слой_x0020_1">
  <metadata id="CorelCorpID_0Corel-Layer"/>
  <g id="_2848077602320">
   <path class="fil0" d="M5.99 141.9c6.57,-9.81 33.08,-10.52 39.66,-13.68 0.77,9.25 3.74,16.41 13.68,16.41l86.17 0c9.31,0 11.6,-7.87 12.31,-16.41 8.61,2 38.24,4.59 41.03,15.04 -3.6,5.38 -8.83,6.02 -15.2,8.05 -36.95,11.79 -135.11,12.21 -171.7,-3.05 -6.32,-2.64 -3.81,-2.29 -5.95,-6.36zm42.4 -24.62c3.44,-2.31 5.35,-4.73 7.65,-8.76 2.21,-3.87 3,-9.02 7.39,-9.02 7.88,0 8.17,17.78 19.15,17.78 13.78,0 10.19,-17.78 19.15,-17.78 8.98,0 6.2,17.78 19.15,17.78 13.87,0 14.5,-33.22 26.42,-10.01 2.69,5.23 2.06,7.11 7.77,8.64 -0.13,5.78 -2.84,23.25 -9.57,23.25 -119.82,0 -84.99,5.25 -97.11,-21.88zm79.33 -65.65l0 0zm0 0c9.33,2.17 18.63,12.57 24.06,19.7 16.73,21.96 12.83,54.03 1.88,36.47 -0.01,-0.01 -11.27,-26.25 -22.7,-9.17 -7.18,10.72 -8.14,23.34 -18.7,2.65 -2.41,-4.73 -5.09,-8.11 -10.29,-7.87 -5.82,0.27 -8.3,3.85 -10.65,7.98 -3.38,5.93 -2.63,9.79 -10.1,10.41 -3.03,-0.85 -15.01,-35.19 -28.26,-9.11 -3.03,5.97 -3.31,8.93 -11.41,9.11 -5.73,-24.6 18.19,-57.18 36.93,-61.55 -0.44,0.66 -24.75,27.45 -13.68,35.56 5.37,-3.94 -0,1.73 4.91,-12.88 3.93,-11.7 15.98,-25.68 29.29,-26.79 0,22.46 -3.22,29.37 5.47,30.09l0 -30.09c12.85,1.07 25.36,14.23 29.62,27.82 2.59,8.26 -0.45,11.2 7.31,11.84 0,-17.23 -6.86,-24.01 -13.68,-34.19zm-4.1 -2.73l0.41 0.41c-0.03,-0.03 -0.54,-0.27 -0.41,-0.41zm-45.14 1.37l0 0zm15.04 -20.52c0,-8.78 10.25,-6.59 15.05,-5.47 5.03,21.6 -15.05,17.4 -15.05,5.47zm-5.47 0c0,7.39 1.39,5.16 2.73,10.94 -26.19,0.58 -56.08,33.61 -56.08,65.65 0,9.38 6.38,7.89 8.56,13.6 2.1,5.53 -6.66,4.4 -13.71,5.87 -40.16,8.38 -40.12,26.2 4.57,34.46 32.85,6.07 52.67,4.89 85.38,4.89 21.5,0 84.8,-5.39 84.8,-21.88 0,-11.94 -20.86,-15.81 -30.18,-17.69 -4.24,-0.86 -10.25,-1.22 -13.59,-2.82 0.25,-11.08 0.92,-1.21 6.58,-9.83 2.3,-3.52 1.63,2.56 1.63,-6.58 0,-33.73 -30.7,-65.09 -56.08,-65.65 4.97,-9.4 4.24,-20.35 -8.21,-23.25 1.17,-14.03 7.54,-8.79 9.57,-16.41 -8.29,-3.98 -12.1,4.38 -14.4,11.58 -2.57,8.06 0.52,2.41 -6.32,7.35 -3.12,2.25 -5.26,4.69 -5.26,9.78z"/>
   <path class="fil0" d="M85.31 176.09c33.12,0 47.84,1 80.74,-4.06 7.46,-1.15 10.31,0.11 10.9,-6.89 -12.72,0 -31.71,5.47 -61.55,5.47 -20.19,0 -37.18,0.46 -57.24,-1.57 -9.28,-0.94 -20.6,-3.9 -30.29,-3.9 0.68,8.22 7.24,6.23 25.38,8.81 10.5,1.5 20.88,2.13 32.06,2.13z"/>
  </g>
 </g>
</svg>
