<?xml version="1.0" encoding="UTF-8"?>
<!DOCTYPE svg PUBLIC "-//W3C//DTD SVG 1.1//EN" "http://www.w3.org/Graphics/SVG/1.1/DTD/svg11.dtd">
<!-- Creator: CorelDRAW 2017 -->
<svg xmlns="http://www.w3.org/2000/svg" xml:space="preserve" width="10.8374mm" height="10.9219mm" version="1.1" style="shape-rendering:geometricPrecision; text-rendering:geometricPrecision; image-rendering:optimizeQuality; fill-rule:evenodd; clip-rule:evenodd"
viewBox="0 0 147.98 149.13"
 xmlns:xlink="http://www.w3.org/1999/xlink">
 <defs>
  <style type="text/css">
   <![CDATA[
    .fil0 {fill:#737373}
   ]]>
  </style>
 </defs>
 <g id="Слой_x0020_1">
  <metadata id="CorelCorpID_0Corel-Layer"/>
  <g id="_2848009592224">
   <path class="fil0" d="M135.26 24.28c7.36,4.93 9.8,13.02 8,26.5 -0.68,5.07 -3.38,7.71 -6.59,10.75 -5.01,4.74 -3.84,4.52 -3.74,13.6 0.25,23.08 0.02,46.29 0.02,69.38l-105.2 0 0 -8.09 75.14 0c11.96,0 14.34,1.64 21.97,-3.47l0.08 -73.91c1.96,-10.91 10.32,2.43 10.32,-34.76zm-130.64 15.03c0,-10.14 -0.92,-18.26 6.74,-26.79 2.62,-2.91 10.12,-7.9 15.22,-7.9l80.92 0c12.17,0 23.12,12.41 23.12,24.28 0,8.48 1.02,12.86 -3.45,19.67 -1.8,2.74 -4.28,3.97 -6.95,5.76l0 60.12c0,5.4 2.18,17.34 -3.47,17.34l-98.27 0c-5.57,0 -3.48,-10.9 -3.47,-16.18l0 -61.27c-4.9,-3.28 -10.4,-8 -10.4,-15.03zm130.64 -15.03l0 0zm-135.26 5.78c0,26.06 6.26,18.21 9.84,27.16 1.33,3.33 0.57,49.73 0.57,57.23 -0,18.5 -2.41,21.96 12.72,21.96 0,3.51 -1.14,12.72 5.78,12.72l102.89 0c2.78,0 3.4,-1.87 5.78,-3.47 0,-8.63 -1.68,-73.94 0.96,-78.81 4.65,-8.59 9.45,-2.76 9.45,-26.39 0,-6.15 -1.66,-11.61 -4.4,-15.25 -3.91,-5.19 -7.6,-5.58 -11.41,-9.4 -2.62,-2.63 -3.72,-5.66 -9.41,-10.24 -3.54,-2.85 -9.22,-5.57 -15.24,-5.57l-79.77 0c-14.91,0 -27.75,14.76 -27.75,30.06z"/>
   <polygon class="fil0" points="50.87,38.15 56.65,38.15 56.65,33.53 50.87,33.53 "/>
   <polygon class="fil0" points="64.74,24.28 70.52,24.28 70.52,19.65 64.74,19.65 "/>
   <polygon class="fil0" points="91.33,24.28 97.11,24.28 97.11,19.65 91.33,19.65 "/>
   <polygon class="fil0" points="38.15,24.28 43.93,24.28 43.93,19.65 38.15,19.65 "/>
   <polygon class="fil0" points="78.61,38.15 83.24,38.15 83.24,33.53 78.61,33.53 "/>
  </g>
 </g>
</svg>
